<svg class="icon" viewBox="0 0 1024 1024" xmlns="http://www.w3.org/2000/svg" width="200" height="200"><path d="M869.886 64.021h-716.36c-49.455 0-89.544 40.091-89.544 89.545v716.359c0 49.455 40.09 89.544 89.545 89.544h716.359c49.453 0 89.544-40.09 89.544-89.544v-716.36c0-49.453-40.09-89.544-89.544-89.544zm12.979 258.322L468.742 736.445c-8.744 8.744-20.2 13.117-31.656 13.117s-22.911-4.373-31.656-13.117L159.204 490.24c-17.49-17.489-17.49-45.821 0-63.31s45.822-17.49 63.31 0l214.572 214.549 382.468-382.446c17.489-17.49 45.821-17.49 63.31 0 17.49 17.489 17.49 45.821 0 63.31z"/></svg>