<svg class="icon" viewBox="0 0 1024 1024" xmlns="http://www.w3.org/2000/svg" width="200" height="200"><path d="M964.432 861.95c0 53.44-43.325 96.763-96.764 96.763H153.817c-53.44 0-96.764-43.323-96.764-96.763v-699.9c0-53.438 43.324-96.763 96.764-96.763h713.851c53.44 0 96.764 43.324 96.764 96.764v699.9zm-55.839-699.9c0-22.602-18.322-40.924-40.925-40.924H153.817c-22.603 0-40.925 18.322-40.925 40.925v699.9c0 22.602 18.322 40.923 40.925 40.923h713.851c22.603 0 40.925-18.321 40.925-40.924v-699.9z"/><path d="M931.196 274.682H79.656c-7.717 0-13.96-6.244-13.96-13.96 0-7.717 6.244-13.96 13.96-13.96h851.54c7.701 0 13.959 6.243 13.959 13.96 0 7.716-6.257 13.96-13.96 13.96zm-753.823-69.798h-13.96c-7.715 0-13.96-6.244-13.96-13.96 0-7.715 6.245-13.96 13.96-13.96h13.96c7.703 0 13.96 6.245 13.96 13.96 0 7.716-6.257 13.96-13.96 13.96zm97.717 0h-13.96c-7.715 0-13.96-6.244-13.96-13.96 0-7.715 6.245-13.96 13.96-13.96h13.96c7.703 0 13.96 6.245 13.96 13.96 0 7.716-6.257 13.96-13.96 13.96zm97.718 0h-13.96c-7.716 0-13.96-6.244-13.96-13.96 0-7.715 6.244-13.96 13.96-13.96h13.96c7.703 0 13.96 6.245 13.96 13.96 0 7.716-6.257 13.96-13.96 13.96zM361.18 769.985a13.97 13.97 0 0 1-10.85-5.153l-127.97-157.92a13.992 13.992 0 0 1 0-17.586l78.837-97.302c4.854-5.971 13.646-6.885 19.631-2.058 6 4.853 6.912 13.64 2.06 19.637l-71.708 88.503 120.838 149.139c4.854 5.997 3.926 14.777-2.059 19.63a13.882 13.882 0 0 1-8.778 3.11zm-12.773-300.099a13.906 13.906 0 0 1-8.78-3.122c-5.985-4.854-6.912-13.646-2.06-19.631l12.761-15.733c4.867-5.985 13.646-6.898 19.631-2.045 5.985 4.853 6.912 13.646 2.06 19.63l-12.761 15.733a13.948 13.948 0 0 1-10.851 5.168zm315.224 300.099c-3.095 0-6.203-1.007-8.779-3.108-5.998-4.853-6.911-13.633-2.059-19.631l120.838-149.139-120.838-149.12c-4.852-5.998-3.94-14.791 2.059-19.645 5.958-4.839 14.764-3.926 19.631 2.06l127.955 157.925a13.96 13.96 0 0 1 0 17.587L674.482 764.83a13.998 13.998 0 0 1-10.851 5.154zm-209.395-74.16a13.891 13.891 0 0 1-8.779-3.108c-5.985-4.855-6.911-13.633-2.059-19.631l127.969-157.92c4.852-5.97 13.646-6.898 19.63-2.071 5.985 4.852 6.912 13.659 2.06 19.658L465.087 690.67a13.98 13.98 0 0 1-10.851 5.155z"/></svg>