<svg class="icon" viewBox="0 0 1024 1024" xmlns="http://www.w3.org/2000/svg" width="200" height="200"><path d="M809.2 571.9c-57 .2-109.7-30.3-137.9-79.9h-13.8c-28.2 49.6-80.9 80.1-137.9 79.9-57 .2-109.7-30.3-137.9-79.9h-13.8c-28.2 49.6-80.9 80.1-137.9 79.9-70.7-.4-132.7-46.9-152.7-114.7-4.6-8.5-7-18-7.1-27.6V155c0-34.5 28-62.4 62.4-62.4h774c34.4.1 62.3 28 62.4 62.4v274.6c0 9.3-2.3 18.3-7.1 27.6-20.1 67.7-82.1 114.3-152.7 114.7zM632.8 452.1h63.1l5.4 11.4c19.5 41.9 61.6 68.6 107.8 68.5 53.5-.3 100.4-36.1 114.8-87.6l1.7-4.3c2-3.2 3.1-6.8 3.3-10.5V155c0-6-2.4-11.7-6.6-15.9-4.2-4.2-9.9-6.6-15.9-6.6H132.6c-12.4 0-22.5 10.1-22.5 22.5v274.6c0 3.1 1 6.4 3.3 10.5l1.8 4.2c14.4 51.6 61.3 87.3 114.8 87.6 46.3 0 87.6-26.2 107.8-68.5l5.4-11.4h63.1l5.4 11.4c19.6 41.9 61.6 68.6 107.8 68.5 46.3 0 87.6-26.2 107.8-68.5l5.5-11.3zm207.6 479.3H198.7c-43.4 0-78.6-35.3-78.6-78.6V610.6c0-11 8.9-20 20-20 11 0 20 8.9 20 20v242.2c0 21.3 17.3 38.7 38.7 38.7h641.6c21.4 0 38.7-17.3 38.7-38.7V610.6c0-7.1 3.8-13.7 10-17.3 6.2-3.6 13.8-3.6 20 0 6.2 3.6 10 10.2 10 17.3v242.2c-.1 43.4-35.3 78.6-78.7 78.6zm0 0"/></svg>