<svg class="icon" viewBox="0 0 1024 1024" xmlns="http://www.w3.org/2000/svg" width="200" height="200"><path d="M512 0C228.073 0 0 228.073 0 512s228.073 512 512 512 512-228.073 512-512S795.927 0 512 0zm221.09 532.945L407.274 719.127c-11.637 6.982-25.6 2.328-32.582-9.309-2.327-2.327-2.327-6.982-2.327-11.636V325.818c0-4.654 0-6.982 2.327-9.309 2.327-4.654 6.982-9.309 11.636-9.309 6.982-2.327 13.964-2.327 20.946 0l323.49 186.182c4.655 2.327 6.982 4.654 9.31 9.309 9.309 9.309 4.654 23.273-6.982 30.254z"/></svg>