<svg class="icon" viewBox="0 0 1024 1024" xmlns="http://www.w3.org/2000/svg" width="200" height="200"><path d="M65.344 944.64h893.312v72.064H65.344V944.64zM838.016 40H185.984c-70.656 0-128 57.344-128 128v531.968c0 70.656 57.344 128 128 128h652.032c70.656 0 128-57.344 128-128V168c0-70.656-57.344-128-128-128zM832 486.656h-60.032V680H254.976L256 486.656h-64V416l325.312-275.968 314.688 288v58.624z"/><path d="M512 266.304 316.032 436.288v184.064H446.72V494.976h130.624v125.376h130.624V436.288z"/></svg>