<svg class="icon" width="200" height="200" viewBox="0 0 1024 1024" xmlns="http://www.w3.org/2000/svg"><path d="M512 1024c282.784 0 512-229.216 512-512S794.784 0 512 0 0 229.216 0 512s229.216 512 512 512zm0-928c229.76 0 416 186.24 416 416S741.76 928 512 928 96 741.76 96 512 282.24 96 512 96zm288 160c17.6 0 32 14.4 32 32v96c0 35.2-28.8 64-64 64H640c-35.2 0-64-28.8-64-64H448c0 35.2-28.8 64-64 64H256c-35.2 0-64-28.8-64-64v-96c0-17.6 14.4-32 32-32h192c17.6 0 32 14.4 32 32v32h128v-32c0-17.6 14.4-32 32-32h192zM512 768a255.84 255.84 0 00219.552-124.288l54.88 32.928A319.872 319.872 0 01512 832a318.496 318.496 0 01-135.552-30.08l33.152-55.264c31.36 13.728 65.952 21.376 102.368 21.376z"/></svg>