<svg class="icon" width="200" height="199.61" viewBox="0 0 1026 1024" xmlns="http://www.w3.org/2000/svg"><path d="M944.4 311.8c-32.7-2.3-63.4 3.5-101.5 54.3s-152.3 20.7-137.5-41c6.6-17.8 7.7-36.4 70.3-66.8 62.6-30.4 36.1-100.4 9.6-115 0 0-241.9-138.7-580.3 60.9-93 54-265.5 251.1-183.5 459.2C73.1 787.7 162.8 858.8 308.3 905c145.5 46.2 314.7 14.7 400.4-29.3 85.7-44 227.8-109.4 294.4-284.2 66.5-174.8-26-277.5-58.7-279.7zm-850 179.6c-3.8-26.8 24.3-53 62.9-58.5 38.5-5.5 72.9 11.8 76.7 38.6 3.8 26.8-24.3 53-62.9 58.5s-72.9-11.8-76.7-38.6zm121 203.6c-40.5 5.8-76.7-12.4-80.7-40.6-4-28.2 25.6-55.7 66.1-61.5 40.5-5.8 76.6 12.4 80.7 40.6 4.1 28.2-25.5 55.7-66.1 61.5zm18.4-325.2c-38.9 5.5-73.5-11.9-77.4-39-3.8-27.1 24.5-53.5 63.4-59s73.5 11.9 77.4 39-24.6 53.4-63.4 59zm172.9 468.8c-44.2 9.3-85.2-8.1-91.7-38.9-6.4-30.7 24.1-63.2 68.3-72.4 44.2-9.3 85.2 8.1 91.7 38.9 6.4 30.7-24.2 63.1-68.3 72.4zm28.9-582c-37 5.3-70-11.3-73.6-37.1-3.7-25.7 23.4-50.9 60.4-56.1 37-5.3 70 11.3 73.6 37.1 3.6 25.7-23.4 50.8-60.4 56.1z"/></svg>